<?xml version="1.0" encoding="utf-8"?>
<!-- Generator: Adobe Illustrator 16.0.0, SVG Export Plug-In . SVG Version: 6.00 Build 0)  -->
<!DOCTYPE svg PUBLIC "-//W3C//DTD SVG 1.1 Tiny//EN" "http://www.w3.org/Graphics/SVG/1.1/DTD/svg11-tiny.dtd">
<svg version="1.1" baseProfile="tiny" id="Ebene_1" xmlns="http://www.w3.org/2000/svg" xmlns:xlink="http://www.w3.org/1999/xlink"
	 x="0px" y="0px" width="500px" height="171.559px" viewBox="0 0 500 171.559" xml:space="preserve">

<defs>
		<mask id="logo_mask" maskUnits="objectBoundingBox">

				<path fill="#FFFFFF" d="M20.232,115.92c0,2.784-2.276,5.06-5.057,5.06H5.058c-2.782,0-5.058-2.275-5.058-5.06V5.06
		C0,2.276,2.276,0,5.058,0h10.117c2.78,0,5.057,2.276,5.057,5.06V115.92z"/>
	<path fill="#FFFFFF" d="M45.521,115.923c0,2.781-2.276,5.057-5.057,5.057H30.348c-2.782,0-5.058-2.275-5.058-5.057v-10.119
		c0-2.781,2.276-5.057,5.058-5.057h10.117c2.78,0,5.057,2.275,5.057,5.057V115.923z"/>
	<path fill="#FFFFFF" d="M45.521,65.342c0,2.78-2.276,5.056-5.057,5.056H30.348c-2.782,0-5.058-2.276-5.058-5.056V55.224
		c0-2.782,2.276-5.056,5.058-5.056h10.117c2.78,0,5.057,2.274,5.057,5.056V65.342z"/>
	<path fill="#FFFFFF" d="M131.445,65.342c0,2.78-2.276,5.056-5.057,5.056h-10.117c-2.782,0-5.058-2.276-5.058-5.056V55.224
		c0-2.782,2.276-5.056,5.058-5.056h10.117c2.78,0,5.057,2.274,5.057,5.056V65.342z"/>
	<path fill="#FFFFFF" d="M70.812,115.923c0,2.781-2.276,5.057-5.058,5.057H55.638c-2.782,0-5.058-2.275-5.058-5.057V55.224
		c0-2.782,2.276-5.056,5.058-5.056h10.116c2.782,0,5.058,2.274,5.058,5.056V115.923z"/>
	<path fill="#FFFFFF" d="M106.155,115.923c0,2.781-2.276,5.057-5.057,5.057H90.981c-2.782,0-5.058-2.275-5.058-5.057V80.516
		c0-2.783,2.276-5.058,5.058-5.058h10.117c2.78,0,5.057,2.275,5.057,5.058V115.923z"/>
	<path fill="#FFFFFF" d="M131.445,115.923c0,2.781-2.276,5.057-5.057,5.057h-10.117c-2.782,0-5.058-2.275-5.058-5.057v-10.119
		c0-2.781,2.276-5.057,5.058-5.057h10.117c2.78,0,5.057,2.275,5.057,5.057V115.923z"/>
	<path fill="#FFFFFF" d="M217.368,65.342c0,2.78-2.276,5.056-5.058,5.056h-10.116c-2.782,0-5.058-2.276-5.058-5.056V55.224
		c0-2.782,2.276-5.056,5.058-5.056h10.116c2.782,0,5.058,2.274,5.058,5.056V65.342z"/>
	<path fill="#FFFFFF" d="M156.735,115.923c0,2.781-2.276,5.057-5.058,5.057h-10.116c-2.781,0-5.058-2.275-5.058-5.057V55.224
		c0-2.782,2.276-5.056,5.058-5.056h10.116c2.782,0,5.058,2.274,5.058,5.056V115.923z"/>
	<path fill="#FFFFFF" d="M192.079,115.923c0,2.781-2.276,5.057-5.057,5.057h-10.118c-2.781,0-5.058-2.275-5.058-5.057V55.224
		c0-2.782,2.276-5.056,5.058-5.056h10.118c2.78,0,5.057,2.274,5.057,5.056V115.923z"/>
	<path fill="#FFFFFF" d="M217.368,115.923c0,2.781-2.276,5.057-5.058,5.057h-10.116c-2.782,0-5.058-2.275-5.058-5.057v-10.119
		c0-2.781,2.276-5.057,5.058-5.057h10.116c2.782,0,5.058,2.275,5.058,5.057V115.923z"/>
	<path fill="#FFFFFF" d="M217.368,65.342c0,2.78-2.276,5.056-5.058,5.056h-10.116c-2.782,0-5.058-2.276-5.058-5.056V55.224
		c0-2.782,2.276-5.056,5.058-5.056h10.116c2.782,0,5.058,2.274,5.058,5.056V65.342z"/>
	<path fill="#FFFFFF" d="M242.658,115.923c0,2.781-2.276,5.057-5.058,5.057h-10.116c-2.782,0-5.058-2.275-5.058-5.057v-10.119
		c0-2.781,2.276-5.057,5.058-5.057H237.6c2.781,0,5.058,2.275,5.058,5.057V115.923z"/>
	<path fill="#FFFFFF" d="M242.658,65.342c0,2.78-2.276,5.056-5.058,5.056h-10.116c-2.782,0-5.058-2.276-5.058-5.056V55.224
		c0-2.782,2.276-5.056,5.058-5.056H237.6c2.781,0,5.058,2.274,5.058,5.056V65.342z"/>
	<path fill="#FFFFFF" d="M278.003,115.923c0,2.781-2.278,5.057-5.06,5.057h-10.116c-2.781,0-5.057-2.275-5.057-5.057V5.06
		c0-2.783,2.275-5.06,5.057-5.06h10.116c2.781,0,5.06,2.276,5.06,5.06V115.923z"/>
	<path fill="#FFFFFF" d="M303.292,90.632c0,2.778-2.275,5.056-5.057,5.056h-10.119c-2.781,0-5.056-2.277-5.056-5.056V80.516
		c0-2.783,2.274-5.058,5.056-5.058h10.119c2.781,0,5.057,2.275,5.057,5.058V90.632z"/>
	<path fill="#FFFFFF" d="M328.58,115.923c0,2.781-2.274,5.057-5.057,5.057h-10.115c-2.782,0-5.06-2.275-5.06-5.057v-10.119
		c0-2.781,2.277-5.057,5.06-5.057h10.115c2.782,0,5.057,2.275,5.057,5.057V115.923z"/>
	<path fill="#FFFFFF" d="M328.58,65.342c0,2.78-2.274,5.056-5.057,5.056h-10.115c-2.782,0-5.06-2.276-5.06-5.056V55.224
		c0-2.782,2.277-5.056,5.06-5.056h10.115c2.782,0,5.057,2.274,5.057,5.056V65.342z"/>
	<path fill="#FFFFFF" d="M363.923,115.923c0,2.781-2.274,5.057-5.057,5.057h-10.115c-2.782,0-5.06-2.275-5.06-5.057V55.224
		c0-2.782,2.277-5.056,5.06-5.056h10.115c2.782,0,5.057,2.274,5.057,5.056V115.923z"/>
	<path fill="#FFFFFF" d="M389.214,115.923c0,2.781-2.277,5.057-5.059,5.057h-10.113c-2.782,0-5.06-2.275-5.06-5.057v-10.119
		c0-2.781,2.277-5.057,5.06-5.057h10.113c2.781,0,5.059,2.275,5.059,5.057V115.923z"/>
	<path fill="#FFFFFF" d="M414.506,115.923c0,2.781-2.278,5.057-5.06,5.057h-10.116c-2.781,0-5.057-2.275-5.057-5.057V55.224
		c0-2.782,2.275-5.056,5.057-5.056h10.116c2.781,0,5.06,2.274,5.06,5.056V115.923z"/>
	<path fill="#FFFFFF" d="M449.85,166.502c0,2.779-2.275,5.057-5.06,5.057h-10.116c-2.781,0-5.057-2.277-5.057-5.057V55.224
		c0-2.782,2.275-5.056,5.057-5.056h10.116c2.784,0,5.06,2.274,5.06,5.056V166.502z"/>
	<path fill="#FFFFFF" d="M475.138,115.923c0,2.781-2.275,5.057-5.057,5.057h-10.116c-2.781,0-5.06-2.275-5.06-5.057v-10.119
		c0-2.781,2.278-5.057,5.06-5.057h10.116c2.781,0,5.057,2.275,5.057,5.057V115.923z"/>
	<path fill="#FFFFFF" d="M475.138,65.342c0,2.78-2.275,5.056-5.057,5.056h-10.116c-2.781,0-5.06-2.276-5.06-5.056V55.224
		c0-2.782,2.278-5.056,5.06-5.056h10.116c2.781,0,5.057,2.274,5.057,5.056V65.342z"/>
	<path fill="#FFFFFF" d="M500.426,115.923c0,2.781-2.274,5.057-5.057,5.057h-10.116c-2.781,0-5.059-2.275-5.059-5.057V55.224
		c0-2.782,2.277-5.056,5.059-5.056h10.116c2.782,0,5.057,2.274,5.057,5.056V115.923z"/>

		</mask>
</defs>
<g>
	<path fill="#1D1D1B" d="M20.232,115.92c0,2.784-2.276,5.06-5.057,5.06H5.058c-2.782,0-5.058-2.275-5.058-5.06V5.06
		C0,2.276,2.276,0,5.058,0h10.117c2.78,0,5.057,2.276,5.057,5.06V115.92z"/>
	<path fill="#1D1D1B" d="M45.521,115.923c0,2.781-2.276,5.057-5.057,5.057H30.348c-2.782,0-5.058-2.275-5.058-5.057v-10.119
		c0-2.781,2.276-5.057,5.058-5.057h10.117c2.78,0,5.057,2.275,5.057,5.057V115.923z"/>
	<path fill="#1D1D1B" d="M45.521,65.342c0,2.78-2.276,5.056-5.057,5.056H30.348c-2.782,0-5.058-2.276-5.058-5.056V55.224
		c0-2.782,2.276-5.056,5.058-5.056h10.117c2.78,0,5.057,2.274,5.057,5.056V65.342z"/>
	<path fill="#1D1D1B" d="M131.445,65.342c0,2.78-2.276,5.056-5.057,5.056h-10.117c-2.782,0-5.058-2.276-5.058-5.056V55.224
		c0-2.782,2.276-5.056,5.058-5.056h10.117c2.78,0,5.057,2.274,5.057,5.056V65.342z"/>
	<path fill="#1D1D1B" d="M70.812,115.923c0,2.781-2.276,5.057-5.058,5.057H55.638c-2.782,0-5.058-2.275-5.058-5.057V55.224
		c0-2.782,2.276-5.056,5.058-5.056h10.116c2.782,0,5.058,2.274,5.058,5.056V115.923z"/>
	<path fill="#1D1D1B" d="M106.155,115.923c0,2.781-2.276,5.057-5.057,5.057H90.981c-2.782,0-5.058-2.275-5.058-5.057V80.516
		c0-2.783,2.276-5.058,5.058-5.058h10.117c2.78,0,5.057,2.275,5.057,5.058V115.923z"/>
	<path fill="#1D1D1B" d="M131.445,115.923c0,2.781-2.276,5.057-5.057,5.057h-10.117c-2.782,0-5.058-2.275-5.058-5.057v-10.119
		c0-2.781,2.276-5.057,5.058-5.057h10.117c2.78,0,5.057,2.275,5.057,5.057V115.923z"/>
	<path fill="#1D1D1B" d="M217.368,65.342c0,2.78-2.276,5.056-5.058,5.056h-10.116c-2.782,0-5.058-2.276-5.058-5.056V55.224
		c0-2.782,2.276-5.056,5.058-5.056h10.116c2.782,0,5.058,2.274,5.058,5.056V65.342z"/>
	<path fill="#1D1D1B" d="M156.735,115.923c0,2.781-2.276,5.057-5.058,5.057h-10.116c-2.781,0-5.058-2.275-5.058-5.057V55.224
		c0-2.782,2.276-5.056,5.058-5.056h10.116c2.782,0,5.058,2.274,5.058,5.056V115.923z"/>
	<path fill="#1D1D1B" d="M192.079,115.923c0,2.781-2.276,5.057-5.057,5.057h-10.118c-2.781,0-5.058-2.275-5.058-5.057V55.224
		c0-2.782,2.276-5.056,5.058-5.056h10.118c2.78,0,5.057,2.274,5.057,5.056V115.923z"/>
	<path fill="#1D1D1B" d="M217.368,115.923c0,2.781-2.276,5.057-5.058,5.057h-10.116c-2.782,0-5.058-2.275-5.058-5.057v-10.119
		c0-2.781,2.276-5.057,5.058-5.057h10.116c2.782,0,5.058,2.275,5.058,5.057V115.923z"/>
	<path fill="#1D1D1B" d="M217.368,65.342c0,2.78-2.276,5.056-5.058,5.056h-10.116c-2.782,0-5.058-2.276-5.058-5.056V55.224
		c0-2.782,2.276-5.056,5.058-5.056h10.116c2.782,0,5.058,2.274,5.058,5.056V65.342z"/>
	<path fill="#1D1D1B" d="M242.658,115.923c0,2.781-2.276,5.057-5.058,5.057h-10.116c-2.782,0-5.058-2.275-5.058-5.057v-10.119
		c0-2.781,2.276-5.057,5.058-5.057H237.6c2.781,0,5.058,2.275,5.058,5.057V115.923z"/>
	<path fill="#1D1D1B" d="M242.658,65.342c0,2.78-2.276,5.056-5.058,5.056h-10.116c-2.782,0-5.058-2.276-5.058-5.056V55.224
		c0-2.782,2.276-5.056,5.058-5.056H237.6c2.781,0,5.058,2.274,5.058,5.056V65.342z"/>
	<path fill="#1D1D1B" d="M278.003,115.923c0,2.781-2.278,5.057-5.06,5.057h-10.116c-2.781,0-5.057-2.275-5.057-5.057V5.06
		c0-2.783,2.275-5.06,5.057-5.06h10.116c2.781,0,5.06,2.276,5.06,5.06V115.923z"/>
	<path fill="#1D1D1B" d="M303.292,90.632c0,2.778-2.275,5.056-5.057,5.056h-10.119c-2.781,0-5.056-2.277-5.056-5.056V80.516
		c0-2.783,2.274-5.058,5.056-5.058h10.119c2.781,0,5.057,2.275,5.057,5.058V90.632z"/>
	<path fill="#1D1D1B" d="M328.58,115.923c0,2.781-2.274,5.057-5.057,5.057h-10.115c-2.782,0-5.06-2.275-5.06-5.057v-10.119
		c0-2.781,2.277-5.057,5.06-5.057h10.115c2.782,0,5.057,2.275,5.057,5.057V115.923z"/>
	<path fill="#1D1D1B" d="M328.58,65.342c0,2.78-2.274,5.056-5.057,5.056h-10.115c-2.782,0-5.06-2.276-5.06-5.056V55.224
		c0-2.782,2.277-5.056,5.06-5.056h10.115c2.782,0,5.057,2.274,5.057,5.056V65.342z"/>
	<path fill="#1D1D1B" d="M363.923,115.923c0,2.781-2.274,5.057-5.057,5.057h-10.115c-2.782,0-5.06-2.275-5.06-5.057V55.224
		c0-2.782,2.277-5.056,5.06-5.056h10.115c2.782,0,5.057,2.274,5.057,5.056V115.923z"/>
	<path fill="#1D1D1B" d="M389.214,115.923c0,2.781-2.277,5.057-5.059,5.057h-10.113c-2.782,0-5.06-2.275-5.06-5.057v-10.119
		c0-2.781,2.277-5.057,5.06-5.057h10.113c2.781,0,5.059,2.275,5.059,5.057V115.923z"/>
	<path fill="#1D1D1B" d="M414.506,115.923c0,2.781-2.278,5.057-5.06,5.057h-10.116c-2.781,0-5.057-2.275-5.057-5.057V55.224
		c0-2.782,2.275-5.056,5.057-5.056h10.116c2.781,0,5.06,2.274,5.06,5.056V115.923z"/>
	<path fill="#1D1D1B" d="M449.85,166.502c0,2.779-2.275,5.057-5.06,5.057h-10.116c-2.781,0-5.057-2.277-5.057-5.057V55.224
		c0-2.782,2.275-5.056,5.057-5.056h10.116c2.784,0,5.06,2.274,5.06,5.056V166.502z"/>
	<path fill="#1D1D1B" d="M475.138,115.923c0,2.781-2.275,5.057-5.057,5.057h-10.116c-2.781,0-5.06-2.275-5.06-5.057v-10.119
		c0-2.781,2.278-5.057,5.06-5.057h10.116c2.781,0,5.057,2.275,5.057,5.057V115.923z"/>
	<path fill="#1D1D1B" d="M475.138,65.342c0,2.78-2.275,5.056-5.057,5.056h-10.116c-2.781,0-5.06-2.276-5.06-5.056V55.224
		c0-2.782,2.278-5.056,5.06-5.056h10.116c2.781,0,5.057,2.274,5.057,5.056V65.342z"/>
	<path fill="#1D1D1B" d="M500.426,115.923c0,2.781-2.274,5.057-5.057,5.057h-10.116c-2.781,0-5.059-2.275-5.059-5.057V55.224
		c0-2.782,2.277-5.056,5.059-5.056h10.116c2.782,0,5.057,2.274,5.057,5.056V115.923z"/>
</g>
</svg>
