<?xml version="1.0" encoding="utf-8"?>
<!-- Generator: Adobe Illustrator 18.1.0, SVG Export Plug-In . SVG Version: 6.00 Build 0)  -->
<svg version="1.1" id="Capa_1" xmlns="http://www.w3.org/2000/svg" xmlns:xlink="http://www.w3.org/1999/xlink" x="0px" y="0px"
	 viewBox="0 0 1440 1440" enable-background="new 0 0 1440 1440" xml:space="preserve">
<g id="Pause">
	<path fill="#F9F9F9" d="M498.5,0H221.5c-61.2,0-110.8,49.6-110.8,110.8v1218.5c0,61.2,49.6,110.8,110.8,110.8h276.9
		c61.2,0,110.8-49.6,110.8-110.8V110.8C609.2,49.6,559.6,0,498.5,0z M1218.5,0H941.5c-61.2,0-110.8,49.6-110.8,110.8v1218.5
		c0,61.2,49.6,110.8,110.8,110.8h276.9c61.2,0,110.8-49.6,110.8-110.8V110.8C1329.2,49.6,1279.6,0,1218.5,0z"/>
</g>
</svg>
