<?xml version="1.0" encoding="utf-8"?>
<!-- Generator: Adobe Illustrator 16.0.0, SVG Export Plug-In . SVG Version: 6.00 Build 0)  -->
<!DOCTYPE svg PUBLIC "-//W3C//DTD SVG 1.1//EN" "http://www.w3.org/Graphics/SVG/1.1/DTD/svg11.dtd">
<svg version="1.1" id="Ebene_1" xmlns="http://www.w3.org/2000/svg" xmlns:xlink="http://www.w3.org/1999/xlink" x="0px" y="0px"
	 width="289.123px" height="288.296px" viewBox="263.431 389.631 289.123 288.296"
	 enable-background="new 263.431 389.631 289.123 288.296" xml:space="preserve">
<title>search icon</title>
<g>
	<title>Layer 1</title>
	<path id="path12423" fill="#FFFFFF" d="M295.939,422.086c-43.273,43.272-43.379,114.159-0.106,157.432
		c36.663,36.663,93.202,42.25,135.921,16.768l76.344,74.234c10.509,10.197,27.085,9.82,37.117-0.845
		c10.033-10.665,9.771-27.445-0.738-37.644l-75.183-72.864c26.361-42.847,21.008-100.045-16.028-137.081
		C409.993,378.812,339.211,378.812,295.939,422.086L295.939,422.086z M327.678,453.825c26.102-26.104,67.746-26.104,93.849,0
		c26.102,26.102,26.102,67.746,0,93.848c-26.104,26.104-67.748,26.104-93.849,0C301.576,521.571,301.576,479.927,327.678,453.825z"
		/>
</g>
</svg>
